<?xml version="1.0" encoding="UTF-8"?>
<svg width="240px" height="64px" viewBox="0 0 240 64" version="1.1" xmlns="http://www.w3.org/2000/svg" xmlns:xlink="http://www.w3.org/1999/xlink">
    <title>logo</title>
    <g id="Page-1" stroke="none" stroke-width="1" fill="none" fill-rule="evenodd">
        <g id="logo" transform="translate(2.000000, 0.000000)" fill-rule="nonzero">
            <path id="TCIRC" fill="#2f2f41" d="M-1.104,61.024 C2.576,61.024 5.48,60.272 7.608,58.768 C9.736,57.264 11.12,55.408 11.76,53.2 C12.08,52.08 12.296,50.8 12.408,49.36 C12.52,47.92 12.576,46.44 12.576,44.92 L12.576,44.92 L12.576,23.104 C12.576,21.92 12.664,21.048 12.84,20.488 C13.016,19.928 13.368,19.544 13.896,19.336 C14.424,19.128 15.184,19.008 16.176,18.976 L16.176,18.976 L16.176,18.016 C15.28,18.048 14.152,18.08 12.792,18.112 C11.432,18.144 10.032,18.16 8.592,18.16 C7.152,18.16 5.784,18.144 4.488,18.112 C3.192,18.08 2.144,18.048 1.344,18.016 L1.344,18.016 L1.344,18.976 C2.368,19.008 3.136,19.128 3.648,19.336 C4.16,19.544 4.504,19.928 4.68,20.488 C4.856,21.048 4.944,21.92 4.944,23.104 L4.944,23.104 L4.944,49.408 C4.944,52.128 4.704,54.24 4.224,55.744 C3.744,57.248 3.056,58.312 2.16,58.936 C1.264,59.56 0.176,59.936 -1.104,60.064 L-1.104,60.064 L-1.104,61.024 Z M30.355125,52.672 C32.147125,52.672 33.683125,52.304 34.963125,51.568 C36.243125,50.832 37.299125,49.888 38.131125,48.736 C38.963125,47.584 39.571125,46.4 39.955125,45.184 L39.955125,45.184 L39.091125,44.896 C38.099125,46.496 37.035125,47.536 35.899125,48.016 C34.763125,48.496 33.715125,48.736 32.755125,48.736 C31.763125,48.736 30.787125,48.424 29.827125,47.8 C28.867125,47.176 28.075125,46.176 27.451125,44.8 C26.827125,43.424 26.515125,41.632 26.515125,39.424 C26.515125,38.976 26.523125,38.544 26.539125,38.128 C26.555125,37.712 26.579125,37.312 26.611125,36.928 L26.593,37.168 L40.051125,37.168 C40.051125,33.5318519 39.3092869,30.87493 37.8256106,29.1972346 L37.651125,29.008 C36.051125,27.344 33.843125,26.512 31.027125,26.512 C28.755125,26.512 26.731125,27 24.955125,27.976 C23.179125,28.952 21.787125,30.432 20.779125,32.416 C19.771125,34.4 19.267125,36.88 19.267125,39.856 C19.267125,42.768 19.739125,45.168 20.683125,47.056 C21.627125,48.944 22.931125,50.352 24.595125,51.28 C26.259125,52.208 28.179125,52.672 30.355125,52.672 Z M26.4897639,36.2195236 C26.6687583,33.1746238 27.133212,30.9787826 27.883125,29.632 C28.667125,28.224 29.619125,27.52 30.739125,27.52 C31.539125,27.52 32.179125,27.92 32.659125,28.72 C33.139125,29.52 33.491125,30.584 33.715125,31.912 C33.939125,33.24 34.035125,34.688 34.003125,36.256 L34.003125,36.256 L26.487,36.256 L26.4897639,36.2195236 Z M69.7247285,52 L69.7247285,50.992 C69.1807285,50.8 68.7167285,50.48 68.3327285,50.032 C67.9487285,49.584 67.5807285,49.072 67.2287285,48.496 L67.2287285,48.496 L59.172,35.023 L62.2367285,31.84 C63.1327285,30.972 64.0164785,30.23875 64.8879785,29.64025 L65.2607285,29.392 C66.2527285,28.752 67.2447285,28.336 68.2367285,28.144 L68.2367285,28.144 L68.2367285,27.184 C67.8527285,27.216 67.3407285,27.24 66.7007285,27.256 C66.0607285,27.272 65.3807285,27.288 64.6607285,27.304 C63.9407285,27.32 63.2607285,27.328 62.6207285,27.328 C61.8847285,27.328 60.9887285,27.312 59.9327285,27.28 C58.8767285,27.248 57.9007285,27.216 57.0047285,27.184 L57.0047285,27.184 L57.0047285,28.144 C58.1247285,28.176 59.0287285,28.432 59.7167285,28.912 C60.4047285,29.392 60.7487285,30.032 60.7487285,30.832 C60.7487285,31.632 60.2047285,32.544 59.1167285,33.568 L59.1167285,33.568 L55.4687285,37.12 C55.0527285,37.568 54.5967285,37.872 54.1007285,38.032 C53.6047285,38.192 53.0207285,38.304 52.3487285,38.368 L52.588,38.342 L52.5887285,14.416 C51.7620618,14.6026667 50.8687285,14.7504444 49.9087285,14.8593333 L49.3247285,14.92 C48.1407285,15.032 46.8927285,15.088 45.5807285,15.088 C44.6207285,15.088 43.6287285,15.04 42.6047285,14.944 L42.6047285,14.944 L42.6047285,15.952 C43.7887285,15.952 44.5967285,16.296 45.0287285,16.984 C45.4607285,17.672 45.6767285,18.736 45.6767285,20.176 L45.6767285,20.176 L45.6767285,47.536 C45.6767285,48.88 45.4447285,49.792 44.9807285,50.272 C44.5167285,50.752 43.7247285,50.992 42.6047285,50.992 L42.6047285,50.992 L42.6047285,52 C43.2447285,51.968 44.1967285,51.928 45.4607285,51.88 C46.7247285,51.832 47.9807285,51.808 49.2287285,51.808 C50.4447285,51.808 51.6367285,51.832 52.8047285,51.88 C53.9727285,51.928 54.8607285,51.968 55.4687285,52 L55.4687285,52 L55.4687285,50.992 C54.4127285,50.992 53.6687285,50.752 53.2367285,50.272 C52.8047285,49.792 52.5887285,48.88 52.5887285,47.536 L52.5887285,47.536 L52.588,39.298 L52.601953,39.2981224 C53.0117489,39.3356735 53.3603204,39.4099592 53.6476673,39.5209796 L53.8127285,39.592 C54.1807285,39.768 54.5567285,40.16 54.9407285,40.768 L54.9407285,40.768 L59.6927285,49.36 C59.9807285,49.84 60.0127285,50.232 59.7887285,50.536 C59.5647285,50.84 59.1327285,50.992 58.4927285,50.992 L58.4927285,50.992 L58.4927285,52 C59.0687285,51.968 59.9487285,51.928 61.1327285,51.88 C62.3167285,51.832 63.5007285,51.808 64.6847285,51.808 C65.6447285,51.808 66.6047285,51.832 67.5647285,51.88 C68.5247285,51.928 69.2447285,51.968 69.7247285,52 L69.7247285,52 Z M76.2238594,61.024 C77.1518594,61.024 77.9678594,60.92 78.6718594,60.712 C79.3758594,60.504 79.9518594,60.208 80.3998594,59.824 C81.1998594,59.184 81.9038594,58.048 82.5118594,56.416 L82.5118594,56.416 L84.3358594,51.28 L91.1038594,32.272 C91.6158594,30.864 92.1438594,29.864 92.6878594,29.272 C93.2318594,28.68 93.8078594,28.304 94.4158594,28.144 L94.4158594,28.144 L94.4158594,27.184 C93.9998594,27.216 93.4398594,27.248 92.7358594,27.28 C92.0318594,27.312 91.3598594,27.328 90.7198594,27.328 C90.0798594,27.328 89.3278594,27.312 88.4638594,27.28 C87.5998594,27.248 86.7998594,27.216 86.0638594,27.184 L86.0638594,27.184 L86.0638594,28.144 C87.5998594,28.272 88.6718594,28.936 89.2798594,30.136 C89.8878594,31.336 89.7438594,33.232 88.8478594,35.824 L88.8478594,35.824 L85.55,45.046 L79.6798594,30.88 C79.3253978,30.0529231 79.2231493,29.4507929 79.3731138,29.0736095 L79.4158594,28.984 C79.6238594,28.616 80.0078594,28.392 80.5678594,28.312 C81.1278594,28.232 81.7278594,28.192 82.3678594,28.192 L82.3678594,28.192 L82.3678594,27.184 C81.4078594,27.248 80.3838594,27.312 79.2958594,27.376 C78.2078594,27.44 77.0078594,27.472 75.6958594,27.472 C74.6398594,27.472 73.5438594,27.448 72.4078594,27.4 C71.2718594,27.352 70.1758594,27.28 69.1198594,27.184 L69.1198594,27.184 L69.1198594,28.192 C69.5038594,28.192 69.9598594,28.328 70.4878594,28.6 C71.0158594,28.872 71.5518594,29.632 72.0958594,30.88 L72.0958594,30.88 L82.285,54.018 L81.5038594,56.32 C81.0607825,57.5310769 80.5086404,58.4422249 79.8474333,59.0534438 L79.6798594,59.2 C78.9438594,59.808 78.0958594,60.112 77.1358594,60.112 L77.1358594,60.112 L76.6078594,60.112 C76.3838594,60.112 76.1918594,60.096 76.0318594,60.064 C76.8318594,59.776 77.4318594,59.344 77.8318594,58.768 C78.2318594,58.192 78.4318594,57.584 78.4318594,56.944 C78.4318594,55.952 78.0958594,55.2 77.4238594,54.688 C76.7518594,54.176 75.8878594,53.92 74.8318594,53.92 C73.6798594,53.92 72.7518594,54.216 72.0478594,54.808 C71.3438594,55.4 70.9918594,56.192 70.9918594,57.184 C70.9918594,58.08 71.2638594,58.816 71.8078594,59.392 C72.3518594,59.968 73.0318594,60.384 73.8478594,60.64 C74.6638594,60.896 75.4558594,61.024 76.2238594,61.024 Z M108.71983,52 L108.71983,50.992 C107.59983,50.992 106.80783,50.752 106.34383,50.272 C105.87983,49.792 105.64783,48.88 105.64783,47.536 L105.64783,47.536 L105.64783,14.416 C104.65583,14.64 103.56783,14.808 102.38383,14.92 C101.19983,15.032 99.9518301,15.088 98.6398301,15.088 C97.6798301,15.088 96.6878301,15.04 95.6638301,14.944 L95.6638301,14.944 L95.6638301,15.952 C96.8478301,15.952 97.6558301,16.296 98.0878301,16.984 C98.5198301,17.672 98.7358301,18.736 98.7358301,20.176 L98.7358301,20.176 L98.7358301,47.536 C98.7358301,48.88 98.5038301,49.792 98.0398301,50.272 C97.5758301,50.752 96.7838301,50.992 95.6638301,50.992 L95.6638301,50.992 L95.6638301,52 C96.3038301,51.968 97.2558301,51.928 98.5198301,51.88 C99.7838301,51.832 101.03983,51.808 102.28783,51.808 C103.53583,51.808 104.76783,51.832 105.98383,51.88 C107.19983,51.928 108.11183,51.968 108.71983,52 L108.71983,52 Z M123.657381,52 L123.657381,50.992 C122.537381,50.992 121.745381,50.752 121.281381,50.272 C120.817381,49.792 120.585381,48.88 120.585381,47.536 L120.585381,47.536 L120.585381,14.416 C119.593381,14.64 118.505381,14.808 117.321381,14.92 C116.137381,15.032 114.889381,15.088 113.577381,15.088 C112.617381,15.088 111.625381,15.04 110.601381,14.944 L110.601381,14.944 L110.601381,15.952 C111.785381,15.952 112.593381,16.296 113.025381,16.984 C113.457381,17.672 113.673381,18.736 113.673381,20.176 L113.673381,20.176 L113.673381,47.536 C113.673381,48.88 113.441381,49.792 112.977381,50.272 C112.513381,50.752 111.721381,50.992 110.601381,50.992 L110.601381,50.992 L110.601381,52 C111.241381,51.968 112.193381,51.928 113.457381,51.88 C114.721381,51.832 115.977381,51.808 117.225381,51.808 C118.473381,51.808 119.705381,51.832 120.921381,51.88 C122.137381,51.928 123.049381,51.968 123.657381,52 L123.657381,52 Z"></path>
        </g>
    </g>
</svg>